<?xml version="1.0" standalone="no"?>
<!DOCTYPE svg PUBLIC "-//W3C//DTD SVG 20010904//EN"
 "http://www.w3.org/TR/2001/REC-SVG-20010904/DTD/svg10.dtd">
<svg version="1.0" xmlns="http://www.w3.org/2000/svg"
 width="2658.000000pt" height="984.000000pt" viewBox="0 0 2658.000000 984.000000"
 preserveAspectRatio="xMidYMid meet">

<g transform="translate(0.000000,984.000000) scale(0.100000,-0.100000)"
fill="#000000" stroke="none">
<path d="M7890 6274 c-220 -40 -367 -113 -504 -250 -186 -185 -283 -412 -306
-714 -19 -262 28 -527 127 -710 79 -145 218 -297 337 -369 133 -80 331 -131
506 -131 175 0 372 51 506 131 142 85 304 278 374 447 157 375 120 884 -87
1195 -125 188 -288 310 -500 373 -77 23 -109 27 -258 29 -93 2 -181 1 -195 -1z
m297 -69 c377 -35 675 -341 754 -775 20 -111 18 -393 -5 -498 -68 -319 -232
-549 -483 -675 -157 -80 -404 -109 -593 -69 -173 36 -288 94 -408 207 -209
196 -306 449 -306 795 0 313 77 540 251 743 138 161 324 254 550 276 86 8 113
8 240 -4z"/>
<path d="M9785 6266 c-326 -68 -505 -247 -505 -506 0 -174 101 -317 280 -398
80 -35 260 -93 456 -146 331 -88 490 -156 583 -249 66 -65 96 -115 117 -197
53 -209 -46 -405 -258 -509 -138 -68 -215 -84 -418 -85 -155 -1 -184 2 -255
22 -266 77 -427 267 -475 560 -12 70 -13 72 -41 72 -26 0 -29 -3 -29 -34 0
-49 25 -161 53 -239 58 -160 174 -293 318 -365 141 -71 214 -85 424 -85 161 0
190 3 275 25 299 80 469 250 487 487 14 199 -74 366 -251 475 -94 58 -218 106
-418 162 -505 142 -577 171 -678 273 -76 76 -100 133 -100 235 1 221 144 366
425 431 64 15 236 22 323 14 171 -16 288 -64 389 -162 103 -99 156 -202 183
-354 l13 -73 34 0 35 0 -7 43 c-31 197 -104 343 -227 452 -60 52 -184 117
-273 141 -78 22 -373 28 -460 10z"/>
<path d="M12790 5200 l0 -1050 1275 0 1275 0 0 1050 0 1050 -1275 0 -1275 0 0
-1050z m1026 635 c131 -140 242 -255 246 -255 3 0 115 115 248 255 l242 255
341 0 340 0 -19 -22 c-10 -11 -193 -210 -406 -441 -214 -231 -388 -423 -388
-427 0 -4 174 -196 388 -427 213 -231 396 -430 406 -441 l19 -22 -340 0 -341
0 -242 255 c-133 140 -245 255 -248 255 -4 0 -115 -115 -246 -255 l-239 -255
-339 0 c-186 0 -338 2 -338 4 0 2 182 201 405 442 223 241 405 441 405 444 0
3 -182 203 -405 444 -223 241 -405 440 -405 442 0 2 152 4 338 4 l339 0 239
-255z"/>
<path d="M15710 5200 l0 -1050 35 0 35 0 0 525 0 525 615 0 615 0 0 35 0 35
-615 0 -615 0 0 455 0 455 645 0 645 0 0 35 0 35 -680 0 -680 0 0 -1050z"/>
<path d="M17380 5200 l0 -1050 35 0 35 0 1 1023 c0 691 3 1017 10 1007 6 -8
210 -467 454 -1020 l443 -1005 47 0 47 0 444 1005 c243 553 447 1012 453 1020
7 10 10 -322 10 -1007 l1 -1023 35 0 35 0 0 1050 0 1051 -65 -3 -66 -3 -442
-1005 c-243 -553 -446 -1004 -451 -1003 -5 1 -208 453 -452 1005 l-443 1003
-65 3 -66 3 0 -1051z"/>
<path d="M10790 6205 l0 -35 415 0 415 0 0 -1015 0 -1015 35 0 35 0 0 1015 0
1015 410 0 410 0 0 35 0 35 -860 0 -860 0 0 -35z"/>
<path d="M10340 3630 l0 -210 145 0 c90 0 145 4 145 10 0 6 -50 10 -130 10
l-130 0 0 200 c0 171 -2 200 -15 200 -13 0 -15 -30 -15 -210z"/>
<path d="M10957 3824 c-14 -15 -6 -34 14 -34 14 0 19 5 17 17 -3 18 -20 27
-31 17z"/>
<path d="M12990 3775 c0 -43 -1 -45 -29 -45 -17 0 -33 -4 -36 -10 -4 -6 8 -10
29 -10 l36 0 0 -123 c0 -143 9 -167 66 -167 19 0 34 5 34 10 0 6 -13 10 -29
10 -47 0 -52 16 -49 146 l3 119 43 3 c52 4 46 22 -9 22 l-39 0 0 45 c0 25 -4
45 -10 45 -5 0 -10 -20 -10 -45z"/>
<path d="M17470 3775 c0 -43 -1 -45 -29 -45 -17 0 -33 -4 -36 -10 -4 -6 8 -10
29 -10 l36 0 0 -123 c0 -143 9 -167 66 -167 19 0 34 5 34 10 0 6 -13 10 -29
10 -47 0 -52 16 -49 146 l3 119 43 3 c52 4 46 22 -9 22 l-39 0 0 45 c0 25 -4
45 -10 45 -5 0 -10 -20 -10 -45z"/>
<path d="M10960 3575 c0 -97 4 -155 10 -155 6 0 10 58 10 155 0 97 -4 155 -10
155 -6 0 -10 -58 -10 -155z"/>
<path d="M11300 3723 c0 -6 16 -53 36 -105 20 -51 45 -117 56 -145 10 -29 25
-53 31 -53 7 0 38 67 70 148 60 157 62 162 48 162 -5 0 -26 -44 -46 -97 -21
-54 -45 -118 -55 -142 l-17 -43 -48 128 c-44 116 -75 178 -75 147z"/>
<path d="M11880 3692 c-117 -116 -10 -326 138 -270 46 17 105 98 72 98 -6 0
-15 -11 -20 -24 -11 -30 -45 -54 -86 -62 -59 -11 -116 37 -125 106 l-4 25 128
3 128 3 -6 32 c-20 91 -59 127 -141 127 -40 0 -51 -5 -84 -38z m158 0 c23 -18
54 -90 45 -104 -6 -10 -221 -10 -226 0 -9 15 14 70 39 96 21 21 36 26 73 26
28 0 55 -7 69 -18z"/>
<path d="M12454 3718 c-22 -10 -44 -47 -44 -72 0 -24 45 -54 105 -72 81 -23
105 -40 105 -74 0 -37 -30 -62 -82 -67 -51 -5 -88 12 -106 50 -18 37 -34 34
-20 -4 15 -42 49 -62 113 -63 71 -1 109 25 113 77 4 49 -20 71 -106 96 -96 29
-122 61 -82 101 30 30 109 28 138 -3 12 -13 22 -29 22 -35 0 -7 5 -12 10 -12
20 0 10 32 -19 61 -25 24 -37 29 -78 28 -26 0 -58 -5 -69 -11z"/>
<path d="M13410 3575 c0 -97 4 -155 10 -155 6 0 10 38 10 95 0 142 30 195 112
195 21 0 38 5 38 10 0 6 -21 10 -46 10 -37 0 -51 -5 -75 -29 l-29 -29 0 29 c0
16 -4 29 -10 29 -6 0 -10 -58 -10 -155z"/>
<path d="M13900 3692 c-117 -116 -10 -326 138 -270 46 17 105 98 72 98 -6 0
-15 -11 -20 -24 -11 -30 -45 -54 -86 -62 -59 -11 -116 37 -125 106 l-4 25 128
3 128 3 -6 32 c-20 91 -59 127 -141 127 -40 0 -51 -5 -84 -38z m158 0 c23 -18
54 -90 45 -104 -6 -10 -221 -10 -226 0 -9 15 14 70 39 96 21 21 36 26 73 26
28 0 55 -7 69 -18z"/>
<path d="M14474 3696 c-34 -34 -43 -56 -24 -56 6 0 10 5 10 10 0 6 11 22 25
35 19 20 34 25 75 25 64 0 100 -30 100 -85 l0 -35 -70 0 c-112 0 -160 -29
-160 -98 0 -81 120 -103 200 -36 l30 26 0 -31 c0 -17 5 -31 10 -31 6 0 10 45
10 115 0 165 -19 195 -120 195 -46 0 -56 -4 -86 -34z m186 -150 c0 -88 -134
-150 -194 -90 -22 22 -20 67 4 89 22 20 75 32 148 34 41 1 42 1 42 -33z"/>
<path d="M15020 3575 c0 -87 4 -155 9 -155 5 0 11 54 13 119 3 110 5 121 27
145 34 36 92 36 120 0 19 -24 21 -40 21 -145 0 -66 4 -119 9 -119 5 0 11 51
13 114 4 136 19 169 81 174 77 7 97 -32 97 -190 0 -59 4 -98 10 -98 11 0 14
161 4 222 -14 85 -102 117 -165 60 l-31 -28 -28 28 c-39 38 -96 39 -134 2
l-26 -27 0 27 c0 14 -4 26 -10 26 -6 0 -10 -58 -10 -155z"/>
<path d="M15804 3711 c-81 -49 -87 -224 -10 -275 34 -22 86 -27 126 -13 33 12
80 66 80 93 0 23 -19 15 -26 -10 -14 -59 -94 -92 -151 -62 -56 29 -80 126 -49
200 18 44 52 66 101 66 46 0 82 -21 95 -56 12 -31 34 -32 25 -1 -4 12 -21 34
-38 50 -38 33 -105 37 -153 8z"/>
<path d="M16354 3696 c-34 -34 -43 -56 -24 -56 6 0 10 5 10 10 0 6 11 22 25
35 19 20 34 25 75 25 64 0 100 -30 100 -85 l0 -35 -70 0 c-112 0 -160 -29
-160 -98 0 -81 120 -103 200 -36 l30 26 0 -31 c0 -17 5 -31 10 -31 6 0 10 45
10 115 0 165 -19 195 -120 195 -46 0 -56 -4 -86 -34z m186 -150 c0 -88 -134
-150 -194 -90 -22 22 -20 67 4 89 22 20 75 32 148 34 41 1 42 1 42 -33z"/>
<path d="M16924 3718 c-22 -10 -44 -47 -44 -72 0 -24 45 -54 105 -72 81 -23
105 -40 105 -74 0 -37 -30 -62 -82 -67 -51 -5 -88 12 -106 50 -18 37 -34 34
-20 -4 15 -42 49 -62 113 -63 71 -1 109 25 113 77 4 49 -20 71 -106 96 -96 29
-122 61 -82 101 30 30 109 28 138 -3 12 -13 22 -29 22 -35 0 -7 5 -12 10 -12
20 0 10 32 -19 61 -25 24 -37 29 -78 28 -26 0 -58 -5 -69 -11z"/>
</g>
</svg>
